<svg width="139" height="50" viewBox="0 0 139 50" fill="none" xmlns="http://www.w3.org/2000/svg">
<g clip-path="url(#clip0_4279_449)">
<path d="M39.087 24.8148C39.0877 24.9169 39.126 25.0194 39.1992 25.135C39.273 25.251 39.3817 25.3808 39.5197 25.5378C39.658 25.6947 39.8252 25.8784 40.0112 26.0996C40.1976 26.3211 40.4025 26.5805 40.6143 26.8857C40.8257 27.1902 41.0435 27.5405 41.2518 27.9409C41.4601 28.3409 41.6597 28.7905 41.8343 29.2898C42.0085 29.7895 42.1576 30.3381 42.2663 30.9322C42.3746 31.5256 42.4422 32.1645 42.454 32.8398C42.4662 33.5152 42.423 34.227 42.3126 34.9628C42.2021 35.6985 42.0241 36.4582 41.7709 37.2273C41.5169 37.9957 41.1877 38.7735 40.7777 39.5426C40.368 40.3114 39.8782 41.0721 39.3079 41.8055C38.7383 42.5395 38.0886 43.2464 37.3643 43.9089C36.6397 44.5711 35.8402 45.1885 34.9752 45.744C34.1102 46.2999 33.1804 46.7944 32.1987 47.2135C31.2166 47.6322 30.1834 47.9753 29.1152 48.2326C28.0471 48.4892 26.9446 48.66 25.8263 48.7378C24.7084 48.8155 23.5751 48.801 22.4474 48.6909C21.3191 48.5808 20.197 48.3763 19.0999 48.0801C18.0029 47.7833 16.932 47.3944 15.9057 46.9214C14.8801 46.4482 13.8991 45.8905 12.9805 45.2596C12.0614 44.6291 11.2048 43.9253 10.4234 43.1635C9.64201 42.4017 8.93586 41.5819 8.31472 40.7218C7.69392 39.8614 7.15743 38.9614 6.71082 38.0388C6.26386 37.1166 5.90643 36.1728 5.63853 35.227C5.37064 34.2812 5.19192 33.3329 5.09752 32.4006C5.00346 31.4676 4.9937 30.5513 5.05919 29.6669C5.12469 28.7822 5.26543 27.9298 5.46888 27.1228C5.67198 26.3155 5.93813 25.5534 6.25132 24.8461C6.5645 24.1385 6.92507 23.486 7.31594 22.893C7.70681 22.2999 8.12834 21.7666 8.56276 21.294C8.99753 20.8214 9.44518 20.4096 9.89005 20.0541C10.3353 19.6992 10.777 19.401 11.2017 19.1527C11.626 18.9037 12.0332 18.7048 12.4119 18.5444C12.7902 18.3839 13.1404 18.2628 13.4539 18.1673C13.7681 18.0718 14.0451 18.0017 14.283 17.944C14.5209 17.8857 14.7192 17.8392 14.8784 17.7898C15.0379 17.7405 15.1581 17.6881 15.2452 17.6197C15.3327 17.5516 15.386 17.4669 15.4149 17.3544C15.4434 17.2423 15.4476 17.1023 15.4389 16.927C15.4305 16.751 15.4093 16.5395 15.3894 16.2871C15.3699 16.0346 15.3518 15.7412 15.3501 15.4072C15.3487 15.0725 15.364 14.6968 15.4107 14.2836C15.4577 13.8701 15.5364 13.419 15.6605 12.9381C15.7848 12.4572 15.9545 11.9464 16.1813 11.4173C16.4077 10.8874 16.691 10.3391 17.039 9.78707C17.3873 9.23429 17.8005 8.67804 18.2823 8.13325C18.7641 7.58846 19.3149 7.05547 19.9336 6.55165C20.5523 6.04783 21.2396 5.57353 21.9897 5.14471C22.7394 4.71623 23.5528 4.3336 24.4196 4.01241C25.286 3.69158 26.206 3.43186 27.1654 3.24679C28.1252 3.06207 29.1243 2.95165 30.1468 2.92526C31.1692 2.89887 32.2144 2.95651 33.2633 3.10408C34.3126 3.2513 35.3654 3.48811 36.4018 3.81554C37.4385 4.14297 38.4589 4.56103 39.4427 5.06519C40.4265 5.56971 41.3741 6.16103 42.2663 6.83047C43.1591 7.49957 43.9963 8.24714 44.7623 9.06068C45.5284 9.87387 46.2234 10.7527 46.8341 11.6822C47.4451 12.611 47.9719 13.5898 48.4063 14.6003C48.8407 15.6103 49.1828 16.6527 49.4284 17.7069C49.6744 18.7607 49.8238 19.8263 49.8785 20.8846C49.9335 21.9426 49.8931 22.9933 49.7632 24.0169C49.6339 25.0409 49.4155 26.0378 49.118 26.9923C48.8205 27.9464 48.4446 28.8579 48.0032 29.7124C47.5615 30.5669 47.0557 31.3652 46.5007 32.0971C45.9457 32.8294 45.3427 33.4954 44.7087 34.0898C44.0753 34.6843 43.4107 35.2076 42.7345 35.6589C42.0579 36.1103 41.3692 36.4891 40.6857 36.8003C40.0022 37.1114 39.3243 37.3537 38.6669 37.5357C38.0095 37.718 37.3727 37.8395 36.769 37.911C36.1656 37.9829 35.5949 38.0055 35.0661 37.9916C34.5376 37.978 34.0506 37.928 33.6099 37.8572C33.1689 37.7864 32.7745 37.694 32.4269 37.5957C32.0785 37.4975 31.7765 37.393 31.5166 37.2964C31.2567 37.1999 31.039 37.1114 30.8547 37.043C30.6704 36.9749 30.5199 36.9266 30.3924 36.9086C30.2642 36.8898 30.159 36.9006 30.0628 36.9468C29.9663 36.9926 29.8792 37.0739 29.7862 37.1923C29.6932 37.3103 29.5943 37.4648 29.4751 37.6541C29.356 37.8433 29.217 38.0666 29.0435 38.3173C28.8703 38.5683 28.6634 38.8471 28.4112 39.143C28.1593 39.4388 27.8622 39.752 27.5127 40.0694C27.1626 40.3871 26.7596 40.7089 26.3001 41.0201C25.8402 41.3308 25.3236 41.6308 24.7505 41.9041C24.1774 42.177 23.5479 42.4235 22.8665 42.6266C22.1855 42.8301 21.4528 42.9909 20.677 43.0944C19.9022 43.1975 19.0846 43.244 18.2384 43.2211C17.3912 43.1982 16.5157 43.1065 15.6267 42.9364C14.738 42.7666 13.8364 42.519 12.94 42.1888C12.0437 41.8589 11.1525 41.4468 10.2868 40.9523C9.42045 40.4575 8.57948 39.8805 7.78206 39.226C6.98499 38.5711 6.23181 37.8385 5.54029 37.0374C4.84888 36.2364 4.21924 35.3666 3.66651 34.4412C3.11382 33.5152 2.63809 32.5343 2.25094 31.5141C1.86383 30.4937 1.56535 29.4339 1.36277 28.3541C1.16026 27.2739 1.0537 26.1728 1.04575 25.0718C1.03781 23.9704 1.12845 22.868 1.31539 21.7853C1.50229 20.7027 1.78545 19.6391 2.15782 18.6135C2.5302 17.5881 2.99168 16.6006 3.53099 15.668C4.07027 14.735 4.68727 13.8565 5.36715 13.0464C6.04682 12.236 6.78955 11.4933 7.57722 10.828C8.36489 10.1624 9.19749 9.57422 10.0562 9.06797C10.9153 8.56172 11.8002 8.13742 12.6913 7.7954C13.5828 7.45339 14.4812 7.19367 15.3671 7.01207C16.2537 6.83013 17.1282 6.7263 17.9743 6.69193C18.8205 6.65755 19.6389 6.69262 20.415 6.78568C21.1916 6.87873 21.9266 7.02943 22.6112 7.22387C23.295 7.41797 23.928 7.65547 24.5053 7.92075C25.0822 8.18637 25.603 8.47943 26.067 8.78394C26.5314 9.08846 26.939 9.40513 27.2933 9.71797C27.6479 10.0308 27.9493 10.3395 28.2053 10.6326C28.4617 10.9249 28.6728 11.2006 28.8498 11.4492C29.0264 11.6978 29.1692 11.9194 29.2908 12.1065C29.4128 12.2944 29.5138 12.4475 29.6082 12.5645C29.703 12.6815 29.7914 12.7614 29.8886 12.8062C29.9855 12.851 30.0907 12.8603 30.2185 12.8398C30.346 12.8197 30.4955 12.7697 30.6784 12.6989C30.8616 12.628 31.0783 12.5367 31.3372 12.4367C31.5957 12.3367 31.8963 12.2284 32.2426 12.1253C32.5896 12.0225 32.9825 11.9246 33.4222 11.8478C33.8618 11.7707 34.3474 11.7142 34.8766 11.6933C35.4047 11.6725 35.9754 11.6874 36.5801 11.7513C37.1846 11.8152 37.8231 11.9277 38.4829 12.101C39.1431 12.2739 39.8249 12.5076 40.5126 12.8089C41.2006 13.1107 41.8942 13.4808 42.5773 13.9225C43.2602 14.3648 43.9318 14.8787 44.5746 15.4648C45.2166 16.051 45.8294 16.7089 46.3948 17.4329C46.9602 18.1576 47.4779 18.9489 47.9315 19.7975C48.385 20.6464 48.7742 21.552 49.0856 22.5023C49.3967 23.4523 49.6298 24.4464 49.774 25.4687C49.9182 26.4905 49.974 27.5402 49.9342 28.5989C49.8949 29.6579 49.7611 30.7256 49.5305 31.7826C49.2995 32.8402 48.9727 33.8867 48.5526 34.903C48.1332 35.919 47.6204 36.9051 47.0229 37.8419C46.4258 38.7791 45.7437 39.6673 44.9891 40.4909C44.2349 41.3148 43.4086 42.0732 42.5261 42.7548C41.643 43.436 40.7045 44.0402 39.7277 44.5579C38.7512 45.0753 37.7371 45.5072 36.7056 45.8482C35.674 46.1898 34.6244 46.4409 33.5775 46.6023C32.5307 46.7638 31.4863 46.8357 30.4638 46.8232C29.441 46.8107 28.4405 46.7138 27.4779 46.5416C26.5157 46.3697 25.5922 46.1225 24.7209 45.8131C23.8503 45.5037 23.0316 45.1322 22.2753 44.7138C21.519 44.2954 20.8254 43.8301 20.199 43.335C19.573 42.8395 19.0146 42.3145 18.5255 41.776C18.0357 41.2378 17.6145 40.6864 17.2584 40.1391C16.9021 39.5912 16.6108 39.0471 16.3767 38.5207C16.1426 37.994 15.9656 37.4857 15.8343 37.0065C15.7033 36.5273 15.6183 36.0773 15.5654 35.6645C15.5124 35.2523 15.4915 34.8763 15.4884 34.5423C15.4849 34.2079 15.4988 33.9145 15.5149 33.6621C15.5312 33.4093 15.549 33.1971 15.5549 33.0214C15.5612 32.8457 15.5549 32.7058 15.5243 32.5937C15.4943 32.4822 15.4396 32.3982 15.3515 32.3312C15.2637 32.2638 15.1424 32.2131 14.9822 32.1659C14.8219 32.119 14.6234 32.0753 14.3851 32.0201C14.1464 31.9652 13.8678 31.8992 13.5528 31.8079C13.2372 31.7166 12.886 31.5999 12.5049 31.4447C12.1238 31.2895 11.7141 31.0961 11.286 30.8534C10.8578 30.6107 10.4116 30.3183 9.96182 29.9694C9.51172 29.6201 9.05814 29.2141 8.61676 28.7475C8.17537 28.2805 7.74618 27.753 7.34694 27.1659C6.94736 26.578 6.5774 25.9301 6.25411 25.2273C5.93047 24.5239 5.65386 23.7655 5.43857 22.961C5.22362 22.1569 5.07069 21.3062 4.99231 20.4228C4.91392 19.5391 4.91044 18.6225 4.99126 17.6888C5.07208 16.7551 5.23721 15.8048 5.49152 14.8555C5.74583 13.9058 6.08933 12.9572 6.5227 12.0294C6.95642 11.1013 7.47968 10.1933 8.08828 9.32492C8.69688 8.45651 9.39084 7.62734 10.1611 6.85512C10.9313 6.0829 11.7779 5.36762 12.6878 4.72457C13.5974 4.08151 14.5701 3.51033 15.5891 3.02352C16.608 2.53637 17.6734 2.13325 18.7658 1.82214C19.8583 1.51068 20.9777 1.29089 22.1043 1.16589C23.2306 1.04089 24.3635 1.01033 25.4821 1.07318C26.6014 1.13603 27.7061 1.29193 28.778 1.53429C29.8496 1.777 30.8878 2.10616 31.8754 2.51172C32.8634 2.91727 33.8008 3.39922 34.6735 3.94332C35.5458 4.48741 36.3547 5.09401 37.0884 5.74609C37.8228 6.39852 38.4826 7.09679 39.0626 7.82249C39.6434 8.54888 40.1443 9.30269 40.5648 10.0659C40.9853 10.8294 41.3263 11.6023 41.5911 12.3676C41.8555 13.1329 42.0447 13.8902 42.1656 14.6242C42.2872 15.3589 42.3405 16.0697 42.3384 16.7454C42.3356 17.4204 42.2778 18.0603 42.1774 18.6555C42.0778 19.251 41.9367 19.8017 41.7691 20.303C41.6019 20.8048 41.4089 21.2572 41.2065 21.66C41.0038 22.0631 40.7913 22.4162 40.584 22.7239C40.377 23.0319 40.1757 23.294 39.9928 23.5176C39.8095 23.7419 39.6451 23.9277 39.5092 24.0864C39.3737 24.2451 39.2668 24.376 39.1947 24.493C39.1229 24.61 39.086 24.7124 39.087 24.8148Z" stroke="url(#paint0_linear_4279_449)" stroke-width="1.73611"/>
<path d="M70.7195 40.1555H62.7275C60.268 40.1555 58.2701 38.2048 58.2701 35.8034V30.4016C58.2701 28.0003 60.268 26.0496 62.7275 26.0496H73.488C74.4196 26.0496 75.1769 26.7891 75.1769 27.6985C75.1769 28.6082 74.4196 29.3478 73.488 29.3478H62.7275C62.1353 29.3478 61.6521 29.8194 61.6521 30.3975V35.7992C61.6521 36.377 62.1353 36.8489 62.7275 36.8489H70.7195C71.3114 36.8489 71.7946 36.377 71.7946 35.7992C71.7946 35.2211 71.3114 34.7496 70.7195 34.7496H65.496C64.5645 34.7496 63.8068 34.01 63.8068 33.1003C63.8068 32.1909 64.5645 31.4513 65.496 31.4513H70.7195C73.1787 31.4513 75.1769 33.402 75.1769 35.8034C75.1769 38.2048 73.1787 40.1555 70.7195 40.1555Z" fill="url(#paint1_linear_4279_449)"/>
<path d="M87.3172 40.1555H81.7847C79.3252 40.1555 77.3273 38.2048 77.3273 35.8034V27.6985C77.3273 26.7891 78.0846 26.0496 79.0162 26.0496C79.9477 26.0496 80.7051 26.7891 80.7051 27.6985V35.8034C80.7051 36.3815 81.1883 36.853 81.7802 36.853H87.313C88.2445 36.853 89.0019 37.5926 89.0019 38.502C89.0019 39.4117 88.2445 40.1513 87.313 40.1513L87.3172 40.1555Z" fill="url(#paint2_linear_4279_449)"/>
<path fill-rule="evenodd" clip-rule="evenodd" d="M102.226 38.5067C102.226 39.416 102.983 40.1556 103.915 40.1556C104.846 40.1556 105.604 39.416 105.604 38.5067V33.4067C105.604 33.3386 105.603 33.2705 105.601 33.2032C105.603 33.1705 105.604 33.1379 105.604 33.1049C105.604 33.0094 105.595 32.916 105.579 32.8251C105.276 29.2073 102.165 26.356 98.3821 26.356C94.5999 26.356 91.4886 29.2073 91.1851 32.8251C91.1691 32.916 91.1607 33.0094 91.1607 33.1049C91.1607 33.1379 91.1618 33.1705 91.1635 33.2032C91.1618 33.2705 91.1607 33.3386 91.1607 33.4067V38.5067C91.1607 39.416 91.9181 40.1556 92.8496 40.1556C93.7812 40.1556 94.5385 39.416 94.5385 38.5067V34.7539H102.226V38.5067ZM101.665 31.456C100.989 30.3757 99.7707 29.6539 98.3821 29.6539C96.9935 29.6539 95.7749 30.3757 95.0994 31.456H101.665Z" fill="url(#paint3_linear_4279_449)"/>
<path d="M117.749 40.1556H109.447C108.516 40.1556 107.759 39.416 107.759 38.5066C107.759 37.5969 108.516 36.8577 109.447 36.8577H117.749C118.341 36.8577 118.824 36.3858 118.824 35.8077C118.824 35.2299 118.341 34.758 117.749 34.758H112.216C109.757 34.758 107.759 32.8073 107.759 30.4059C107.759 28.0049 109.757 26.0542 112.216 26.0542H120.517C121.448 26.0542 122.206 26.7934 122.206 27.7032C122.206 28.6125 121.448 29.3521 120.517 29.3521H112.216C111.624 29.3521 111.141 29.8236 111.141 30.4018C111.141 30.9799 111.624 31.4514 112.216 31.4514H117.749C120.208 31.4514 122.206 33.4025 122.206 35.8035C122.206 38.2049 120.208 40.1556 117.749 40.1556Z" fill="url(#paint4_linear_4279_449)"/>
<path d="M134.346 40.1556H126.045C125.114 40.1556 124.356 39.416 124.356 38.5066C124.356 37.5969 125.114 36.8577 126.045 36.8577H134.346C134.938 36.8577 135.421 36.3858 135.421 35.8077C135.421 35.2299 134.938 34.758 134.346 34.758H128.814C126.354 34.758 124.356 32.8073 124.356 30.4059C124.356 28.0049 126.354 26.0542 128.814 26.0542H137.115C138.046 26.0542 138.804 26.7934 138.804 27.7032C138.804 28.6125 138.046 29.3521 137.115 29.3521H128.814C128.222 29.3521 127.739 29.8236 127.739 30.4018C127.739 30.9799 128.222 31.4514 128.814 31.4514H134.346C136.806 31.4514 138.804 33.4025 138.804 35.8035C138.804 38.2049 136.806 40.1556 134.346 40.1556Z" fill="url(#paint5_linear_4279_449)"/>
<path d="M59.6542 23.9504C58.7227 23.9504 57.9653 23.2108 57.9653 22.3014V11.4979C57.9653 10.5882 58.7227 9.84863 59.6542 9.84863H67.9552C70.4147 9.84863 72.4126 11.7997 72.4126 14.2007C72.4126 16.6021 70.4147 18.5528 67.9552 18.5528H61.3473V22.3056C61.3473 23.215 60.5899 23.9545 59.6584 23.9545L59.6542 23.9504ZM61.3431 15.2462H67.9507C68.5429 15.2462 69.0261 14.7747 69.0261 14.1966C69.0261 13.6184 68.5429 13.1469 67.9507 13.1469H61.3431V15.2462Z" fill="#2389AA"/>
<path d="M103.915 23.9504H95.6137C93.1542 23.9504 91.1563 21.9997 91.1563 19.5983V14.1966C91.1563 11.7952 93.1542 9.84448 95.6137 9.84448H103.915C106.374 9.84448 108.372 11.7952 108.372 14.1966V19.5983C108.372 21.9997 106.374 23.9504 103.915 23.9504ZM95.6137 13.1469C95.0218 13.1469 94.5386 13.6184 94.5386 14.1966V19.5983C94.5386 20.1764 95.0218 20.648 95.6137 20.648H103.915C104.507 20.648 104.99 20.1764 104.99 19.5983V14.1966C104.99 13.6184 104.507 13.1469 103.915 13.1469H95.6137Z" fill="#2389AA"/>
<path d="M76.252 23.9504C75.3205 23.9504 74.5631 23.2108 74.5631 22.3014V11.4979C74.5631 10.5882 75.3205 9.84863 76.252 9.84863H84.5533C87.0125 9.84863 89.0108 11.7997 89.0108 14.2007C89.0108 16.6021 87.0125 18.5528 84.5533 18.5528H77.9454V22.3056C77.9454 23.215 77.1881 23.9545 76.2565 23.9545L76.252 23.9504ZM77.9409 15.2462H84.5488C85.1407 15.2462 85.6239 14.7747 85.6239 14.1966C85.6239 13.6184 85.1407 13.1469 84.5488 13.1469H77.9409V15.2462Z" fill="#2389AA"/>
<path d="M86.5378 23.7715L77.5809 18.9239C76.827 18.5159 76.5804 17.5382 77.0312 16.7441C77.4823 15.95 78.4619 15.6361 79.2158 16.0441L88.1728 20.8916C88.9266 21.2996 89.1733 22.277 88.7225 23.0715C88.2717 23.8656 87.2917 24.1795 86.5378 23.7715Z" fill="#2389AA"/>
</g>
<defs>
<linearGradient id="paint0_linear_4279_449" x1="26.9142" y1="1.04158" x2="26.9142" y2="48.7867" gradientUnits="userSpaceOnUse">
<stop offset="0.189" stop-color="#2389AA"/>
<stop offset="0.759" stop-color="#CF1A5B"/>
<stop offset="0.84" stop-color="#ED4834"/>
<stop offset="0.94" stop-color="#F29A42"/>
<stop offset="1" stop-color="#F5C055"/>
</linearGradient>
<linearGradient id="paint1_linear_4279_449" x1="67.2139" y1="26.0496" x2="67.2139" y2="40.1555" gradientUnits="userSpaceOnUse">
<stop stop-color="#2389AA"/>
<stop offset="0.465" stop-color="#CF1A5B"/>
<stop offset="0.76" stop-color="#ED4834"/>
<stop offset="0.935" stop-color="#F29A42"/>
<stop offset="1" stop-color="#F5C055"/>
</linearGradient>
<linearGradient id="paint2_linear_4279_449" x1="83.5032" y1="26.0496" x2="83.5032" y2="40.1555" gradientUnits="userSpaceOnUse">
<stop stop-color="#2389AA"/>
<stop offset="0.465" stop-color="#CF1A5B"/>
<stop offset="0.76" stop-color="#ED4834"/>
<stop offset="0.935" stop-color="#F29A42"/>
<stop offset="1" stop-color="#F5C055"/>
</linearGradient>
<linearGradient id="paint3_linear_4279_449" x1="98.8009" y1="26.356" x2="98.8009" y2="40.1556" gradientUnits="userSpaceOnUse">
<stop stop-color="#2389AA"/>
<stop offset="0.465" stop-color="#CF1A5B"/>
<stop offset="0.655" stop-color="#ED4834"/>
<stop offset="0.845" stop-color="#F29A42"/>
<stop offset="1" stop-color="#F5C055"/>
</linearGradient>
<linearGradient id="paint4_linear_4279_449" x1="115.401" y1="26.0542" x2="115.401" y2="40.1556" gradientUnits="userSpaceOnUse">
<stop stop-color="#2389AA"/>
<stop offset="0.465" stop-color="#CF1A5B"/>
<stop offset="0.76" stop-color="#ED4834"/>
<stop offset="0.935" stop-color="#F29A42"/>
<stop offset="1" stop-color="#F5C055"/>
</linearGradient>
<linearGradient id="paint5_linear_4279_449" x1="131.999" y1="26.0542" x2="131.999" y2="40.1556" gradientUnits="userSpaceOnUse">
<stop stop-color="#2389AA"/>
<stop offset="0.465" stop-color="#CF1A5B"/>
<stop offset="0.76" stop-color="#ED4834"/>
<stop offset="0.935" stop-color="#F29A42"/>
<stop offset="1" stop-color="#F5C055"/>
</linearGradient>
<clipPath id="clip0_4279_449">
<rect width="139" height="50" fill="white"/>
</clipPath>
</defs>
</svg>
