<svg width="133" height="48" viewBox="0 0 133 48" fill="none" xmlns="http://www.w3.org/2000/svg">
<g clip-path="url(#clip0_4402_66)">
<path d="M37.3997 24.3221C37.4003 24.4202 37.437 24.5186 37.507 24.6298C37.5777 24.7412 37.6817 24.8661 37.8137 25.0169C37.946 25.1678 38.106 25.3443 38.284 25.5569C38.4623 25.7698 38.6583 26.0191 38.861 26.3125C39.0633 26.6052 39.2717 26.9419 39.471 27.3267C39.6703 27.7112 39.8613 28.1434 40.0283 28.6233C40.195 29.1036 40.3377 29.6309 40.4417 30.2019C40.5453 30.7723 40.61 31.3864 40.6213 32.0355C40.633 32.6846 40.5917 33.3688 40.486 34.076C40.3803 34.7832 40.21 35.5134 39.9677 36.2527C39.7247 36.9912 39.4097 37.7388 39.0173 38.478C38.6253 39.217 38.1567 39.9482 37.611 40.653C37.066 41.3586 36.4443 42.0381 35.7513 42.6749C35.058 43.3113 34.293 43.9047 33.4653 44.4387C32.6377 44.973 31.748 45.4483 30.8087 45.8511C29.869 46.2536 28.8803 46.5833 27.8583 46.8306C26.8363 47.0772 25.7813 47.2414 24.7113 47.3162C23.6417 47.391 22.5573 47.3769 21.4783 47.2712C20.3987 47.1654 19.325 46.9688 18.2753 46.6841C17.2257 46.3988 16.201 46.025 15.219 45.5704C14.2377 45.1155 13.299 44.5795 12.42 43.9731C11.5407 43.367 10.721 42.6905 9.97332 41.9583C9.22566 41.2261 8.54999 40.4381 7.95566 39.6114C7.36166 38.7844 6.84832 37.9194 6.42099 37.0326C5.99332 36.1462 5.65132 35.2391 5.39499 34.33C5.13866 33.4209 4.96766 32.5094 4.87733 31.6133C4.78733 30.7165 4.77799 29.8358 4.84066 28.9858C4.90333 28.1354 5.03799 27.3161 5.23266 26.5404C5.42699 25.7645 5.68166 25.0319 5.98132 24.3521C6.28099 23.6719 6.62599 23.0448 6.99999 22.4748C7.37399 21.9048 7.77733 21.3921 8.19299 20.9379C8.60899 20.4837 9.03732 20.0879 9.46299 19.7461C9.88899 19.405 10.3117 19.1184 10.718 18.8797C11.124 18.6404 11.5137 18.4492 11.876 18.295C12.238 18.1408 12.573 18.0244 12.873 17.9326C13.1737 17.8408 13.4387 17.7734 13.6663 17.718C13.894 17.6619 14.0837 17.6172 14.236 17.5698C14.3887 17.5224 14.5037 17.472 14.587 17.4063C14.6707 17.3408 14.7217 17.2594 14.7493 17.1513C14.7767 17.0435 14.7807 16.909 14.7723 16.7404C14.7643 16.5712 14.744 16.368 14.725 16.1254C14.7063 15.8827 14.689 15.6007 14.6873 15.2797C14.686 14.9579 14.7007 14.5968 14.7453 14.1997C14.7903 13.8022 14.8657 13.3686 14.9843 12.9064C15.1033 12.4442 15.2657 11.9533 15.4827 11.4446C15.6993 10.9353 15.9703 10.4084 16.3033 9.87771C16.6367 9.34639 17.032 8.81174 17.493 8.2881C17.954 7.76446 18.481 7.25216 19.073 6.7679C19.665 6.28365 20.3227 5.82775 21.0403 5.41558C21.7577 5.00374 22.536 4.63596 23.3653 4.32725C24.1943 4.01887 25.0747 3.76923 25.9927 3.59135C26.911 3.4138 27.867 3.30767 28.8453 3.28231C29.8237 3.25694 30.8237 3.31234 31.8273 3.45418C32.8313 3.59569 33.8387 3.8233 34.8303 4.13802C35.8223 4.45274 36.7987 4.85456 37.74 5.33915C38.6813 5.82408 39.588 6.39244 40.4417 7.0359C41.296 7.67902 42.097 8.39757 42.83 9.17952C43.563 9.96115 44.228 10.8058 44.8123 11.6993C45.397 12.592 45.901 13.5328 46.3167 14.504C46.7323 15.4749 47.0597 16.4768 47.2947 17.49C47.53 18.5029 47.673 19.5272 47.7253 20.5444C47.778 21.5613 47.7393 22.5712 47.615 23.5551C47.4913 24.5393 47.2823 25.4975 46.9977 26.415C46.713 27.3321 46.3533 28.2081 45.931 29.0295C45.5083 29.8508 45.0243 30.6181 44.4933 31.3216C43.9623 32.0255 43.3853 32.6656 42.7787 33.237C42.1727 33.8083 41.5367 34.3113 40.8897 34.7451C40.2423 35.179 39.5833 35.5431 38.9293 35.8422C38.2753 36.1412 37.6267 36.3741 36.9977 36.549C36.3687 36.7242 35.7593 36.841 35.1817 36.9098C34.6043 36.9789 34.0583 37.0006 33.5523 36.9872C33.0467 36.9742 32.5807 36.9262 32.159 36.8581C31.737 36.79 31.3597 36.7012 31.027 36.6068C30.6937 36.5123 30.4047 36.4119 30.156 36.3191C29.9073 36.2263 29.699 36.1412 29.5227 36.0754C29.3463 36.01 29.2023 35.9636 29.0803 35.9463C28.9577 35.9283 28.857 35.9386 28.765 35.983C28.6727 36.027 28.5893 36.1051 28.5003 36.219C28.4113 36.3324 28.3167 36.4809 28.2027 36.6628C28.0887 36.8447 27.9557 37.0593 27.7897 37.3003C27.624 37.5416 27.426 37.8096 27.1847 38.0939C26.9437 38.3783 26.6593 38.6793 26.325 38.9843C25.99 39.2897 25.6043 39.5991 25.1647 39.8981C24.7247 40.1968 24.2303 40.4852 23.682 40.7478C23.1337 41.0102 22.5313 41.2471 21.8793 41.4423C21.2277 41.6379 20.5267 41.7924 19.7843 41.8919C19.043 41.991 18.2607 42.0357 17.451 42.0137C16.6403 41.9917 15.8027 41.9036 14.952 41.74C14.1017 41.5768 13.239 41.3389 12.3813 41.0215C11.5237 40.7044 10.671 40.3083 9.84266 39.833C9.01366 39.3575 8.20899 38.8028 7.44599 38.1737C6.68332 37.5442 5.96266 36.84 5.30099 36.0701C4.63942 35.3002 4.03696 34.4641 3.50809 33.5747C2.97926 32.6846 2.52406 31.7418 2.15362 30.7613C1.78322 29.7804 1.49762 28.7618 1.30379 27.7239C1.11002 26.6856 1.00806 25.6273 1.00046 24.569C0.992859 23.5104 1.07959 22.4508 1.25846 21.4102C1.43729 20.3696 1.70823 19.3473 2.06453 18.3614C2.42083 17.3759 2.86239 16.4267 3.37842 15.5303C3.89442 14.6335 4.48479 13.7892 5.13532 13.0105C5.78566 12.2316 6.49632 11.5177 7.24999 10.8783C8.00366 10.2385 8.80032 9.67313 9.62199 9.18653C10.444 8.69993 11.2907 8.2921 12.1433 7.96337C12.9963 7.63463 13.856 7.385 14.7037 7.21045C15.552 7.03557 16.3887 6.93577 17.1983 6.90273C18.008 6.86969 18.791 6.9034 19.5337 6.99285C20.2767 7.08229 20.98 7.22713 21.635 7.41403C22.2893 7.60059 22.895 7.82887 23.4473 8.08385C23.9993 8.33916 24.4977 8.62084 24.9417 8.91353C25.386 9.20622 25.776 9.5106 26.115 9.8113C26.4543 10.112 26.7427 10.4087 26.9877 10.6904C27.233 10.9714 27.435 11.2364 27.6043 11.4753C27.7733 11.7143 27.91 11.9272 28.0263 12.1071C28.143 12.2877 28.2397 12.4348 28.33 12.5473C28.4207 12.6598 28.5053 12.7365 28.5983 12.7796C28.691 12.8226 28.7917 12.8317 28.914 12.812C29.036 12.7926 29.179 12.7446 29.354 12.6765C29.5293 12.6084 29.7367 12.5206 29.9843 12.4245C30.2317 12.3284 30.5193 12.2243 30.8507 12.1251C31.1827 12.0263 31.5587 11.9322 31.9793 11.8585C32.4 11.7844 32.8647 11.73 33.371 11.71C33.8763 11.6899 34.4223 11.7043 35.001 11.7657C35.5793 11.8271 36.1903 11.9352 36.8217 12.1018C37.4533 12.268 38.1057 12.4926 38.7637 12.7823C39.422 13.0723 40.0857 13.4281 40.7393 13.8526C41.3927 14.2778 42.0353 14.7717 42.6503 15.3351C43.2647 15.8984 43.851 16.5309 44.392 17.2267C44.933 17.9232 45.4283 18.6838 45.8623 19.4995C46.2963 20.3155 46.6687 21.1859 46.9667 22.0993C47.2643 23.0125 47.4873 23.968 47.6253 24.9505C47.7633 25.9327 47.8167 26.9416 47.7787 27.9592C47.741 28.9771 47.613 30.0033 47.3923 31.0193C47.1713 32.0358 46.8587 33.0417 46.4567 34.0186C46.0553 34.9951 45.5647 35.9429 44.993 36.8434C44.4217 37.7442 43.769 38.5979 43.047 39.3895C42.3253 40.1815 41.5347 40.9104 40.6903 41.5655C39.8453 42.2203 38.9473 42.801 38.0127 43.2986C37.0783 43.7959 36.108 44.2111 35.121 44.5388C34.134 44.8672 33.1297 45.1085 32.128 45.2637C31.1263 45.4189 30.127 45.488 29.1487 45.476C28.17 45.4639 27.2127 45.3708 26.2917 45.2053C25.371 45.0401 24.4873 44.8025 23.6537 44.5051C22.8207 44.2077 22.0373 43.8506 21.3137 43.4485C20.59 43.0463 19.9263 42.5991 19.327 42.1232C18.728 41.6469 18.1937 41.1423 17.7257 40.6247C17.257 40.1074 16.854 39.5774 16.5133 39.0514C16.1723 38.5248 15.8937 38.0018 15.6697 37.4958C15.4457 36.9896 15.2763 36.501 15.1507 36.0404C15.0253 35.5798 14.944 35.1473 14.8933 34.7505C14.8427 34.3543 14.8227 33.9929 14.8197 33.6718C14.8163 33.3504 14.8297 33.0684 14.845 32.8258C14.8607 32.5828 14.8777 32.3789 14.8833 32.21C14.8893 32.0412 14.8833 31.9067 14.854 31.7989C14.8253 31.6917 14.773 31.611 14.6887 31.5466C14.6047 31.4818 14.4887 31.4331 14.3353 31.3877C14.182 31.3426 13.992 31.3006 13.764 31.2475C13.5357 31.1948 13.269 31.1314 12.9677 31.0436C12.6657 30.9558 12.3297 30.8437 11.965 30.6945C11.6003 30.5453 11.2083 30.3594 10.7987 30.1262C10.389 29.8929 9.96199 29.6119 9.53166 29.2765C9.10099 28.9407 8.66699 28.5506 8.24466 28.102C7.82233 27.6531 7.41166 27.1462 7.02966 26.5818C6.64732 26.0168 6.29333 25.394 5.98399 24.7185C5.67433 24.0424 5.40966 23.3135 5.20366 22.5402C4.99799 21.7673 4.85166 20.9496 4.77666 20.1006C4.70166 19.2512 4.69833 18.3701 4.77566 17.4727C4.85299 16.5752 5.01099 15.6618 5.25432 14.7493C5.49766 13.8366 5.82632 12.9248 6.24099 12.033C6.65599 11.1409 7.15666 10.2682 7.73899 9.4335C8.32133 8.59881 8.98532 7.80184 9.72232 7.05959C10.4593 6.31735 11.2693 5.62984 12.14 5.01175C13.0103 4.39366 13.941 3.84466 14.916 3.37675C15.891 2.90851 16.9103 2.52104 17.9557 2.22201C19.001 1.92264 20.072 1.71138 21.15 1.59123C22.2277 1.47109 23.3117 1.44172 24.382 1.50213C25.453 1.56253 26.51 1.71238 27.5357 1.94533C28.561 2.17862 29.5543 2.495 30.4993 2.88482C31.4447 3.27463 32.3417 3.73786 33.1767 4.26083C34.0113 4.78381 34.7853 5.36685 35.4873 5.99362C36.19 6.62072 36.8213 7.29188 37.3763 7.9894C37.932 8.68759 38.4113 9.41214 38.8137 10.1457C39.216 10.8796 39.5423 11.6225 39.7957 12.3581C40.0487 13.0936 40.2297 13.8215 40.3453 14.5271C40.4617 15.2333 40.5127 15.9164 40.5107 16.5659C40.508 17.2147 40.4527 17.8298 40.3567 18.4018C40.2613 18.9742 40.1263 19.5035 39.966 19.9854C39.806 20.4677 39.6213 20.9025 39.4277 21.2897C39.2337 21.6772 39.0303 22.0166 38.832 22.3123C38.634 22.6083 38.4413 22.8603 38.2663 23.0752C38.091 23.2908 37.9337 23.4693 37.8037 23.6219C37.674 23.7744 37.5717 23.9002 37.5027 24.0127C37.434 24.1251 37.3987 24.2236 37.3997 24.3221Z" stroke="white" stroke-width="2"/>
<path d="M67.6669 39.0671H60.0199C57.6665 39.0671 55.7549 37.1921 55.7549 34.8839V29.6919C55.7549 27.3838 57.6665 25.5088 60.0199 25.5088H70.3159C71.2072 25.5088 71.9319 26.2197 71.9319 27.0937C71.9319 27.9681 71.2072 28.679 70.3159 28.679H60.0199C59.4532 28.679 58.9909 29.1322 58.9909 29.6879V34.8799C58.9909 35.4353 59.4532 35.8888 60.0199 35.8888H67.6669C68.2332 35.8888 68.6955 35.4353 68.6955 34.8799C68.6955 34.3242 68.2332 33.871 67.6669 33.871H62.6689C61.7776 33.871 61.0526 33.1602 61.0526 32.2858C61.0526 31.4117 61.7776 30.7008 62.6689 30.7008H67.6669C70.0199 30.7008 71.9319 32.5758 71.9319 34.8839C71.9319 37.1921 70.0199 39.0671 67.6669 39.0671Z" fill="white"/>
<path d="M83.5474 39.0671H78.2538C75.9004 39.0671 73.9888 37.1921 73.9888 34.8839V27.0937C73.9888 26.2197 74.7134 25.5088 75.6048 25.5088C76.4961 25.5088 77.2208 26.2197 77.2208 27.0937V34.8839C77.2208 35.4396 77.6831 35.8928 78.2494 35.8928H83.5434C84.4348 35.8928 85.1594 36.6037 85.1594 37.4778C85.1594 38.3522 84.4348 39.063 83.5434 39.063L83.5474 39.0671Z" fill="white"/>
<path fill-rule="evenodd" clip-rule="evenodd" d="M97.8129 37.4827C97.8129 38.3567 98.5379 39.0676 99.4289 39.0676C100.32 39.0676 101.045 38.3567 101.045 37.4827V32.5807C101.045 32.5153 101.044 32.4498 101.042 32.3851C101.044 32.3537 101.045 32.3224 101.045 32.2906C101.045 32.1989 101.037 32.1091 101.022 32.0217C100.731 28.5444 97.7546 25.8037 94.1353 25.8037C90.5163 25.8037 87.5393 28.5444 87.2489 32.0217C87.2336 32.1091 87.2256 32.1989 87.2256 32.2906C87.2256 32.3224 87.2266 32.3537 87.2283 32.3851C87.2266 32.4498 87.2256 32.5153 87.2256 32.5807V37.4827C87.2256 38.3567 87.9502 39.0676 88.8416 39.0676C89.7329 39.0676 90.4576 38.3567 90.4576 37.4827V33.8756H97.8129V37.4827ZM97.2763 30.7057C96.6299 29.6674 95.4639 28.9736 94.1353 28.9736C92.8066 28.9736 91.6406 29.6674 90.9943 30.7057H97.2763Z" fill="white"/>
<path d="M112.666 39.0676H104.723C103.832 39.0676 103.107 38.3567 103.107 37.4827C103.107 36.6083 103.832 35.8977 104.723 35.8977H112.666C113.232 35.8977 113.695 35.4442 113.695 34.8885C113.695 34.3331 113.232 33.8796 112.666 33.8796H107.372C105.019 33.8796 103.107 32.0046 103.107 29.6965C103.107 27.3886 105.019 25.5137 107.372 25.5137H115.315C116.206 25.5137 116.931 26.2242 116.931 27.0986C116.931 27.9727 116.206 28.6836 115.315 28.6836H107.372C106.806 28.6836 106.343 29.1368 106.343 29.6925C106.343 30.2481 106.806 30.7014 107.372 30.7014H112.666C115.019 30.7014 116.931 32.5767 116.931 34.8845C116.931 37.1926 115.019 39.0676 112.666 39.0676Z" fill="white"/>
<path d="M128.547 39.0676H120.604C119.713 39.0676 118.988 38.3567 118.988 37.4827C118.988 36.6083 119.713 35.8977 120.604 35.8977H128.547C129.113 35.8977 129.576 35.4442 129.576 34.8885C129.576 34.3331 129.113 33.8796 128.547 33.8796H123.253C120.9 33.8796 118.988 32.0046 118.988 29.6965C118.988 27.3886 120.9 25.5137 123.253 25.5137H131.196C132.087 25.5137 132.812 26.2242 132.812 27.0986C132.812 27.9727 132.087 28.6836 131.196 28.6836H123.253C122.687 28.6836 122.225 29.1368 122.225 29.6925C122.225 30.2481 122.687 30.7014 123.253 30.7014H128.547C130.9 30.7014 132.812 32.5767 132.812 34.8845C132.812 37.1926 130.9 39.0676 128.547 39.0676Z" fill="white"/>
<path d="M57.0794 23.4908C56.188 23.4908 55.4634 22.7799 55.4634 21.9058V11.5218C55.4634 10.6474 56.188 9.93652 57.0794 9.93652H65.022C67.3754 9.93652 69.287 11.8118 69.287 14.1196C69.287 16.4278 67.3754 18.3028 65.022 18.3028H58.6994V21.9098C58.6994 22.7839 57.9747 23.4948 57.0834 23.4948L57.0794 23.4908ZM58.6954 15.1245H65.0177C65.5844 15.1245 66.0467 14.6713 66.0467 14.1156C66.0467 13.56 65.5844 13.1067 65.0177 13.1067H58.6954V15.1245Z" fill="white"/>
<path d="M99.4289 23.4909H91.4862C89.1329 23.4909 87.2212 21.6159 87.2212 19.3078V14.1157C87.2212 11.8076 89.1329 9.93262 91.4862 9.93262H99.4289C101.782 9.93262 103.694 11.8076 103.694 14.1157V19.3078C103.694 21.6159 101.782 23.4909 99.4289 23.4909ZM91.4862 13.1068C90.9199 13.1068 90.4575 13.5601 90.4575 14.1157V19.3078C90.4575 19.8634 90.9199 20.3167 91.4862 20.3167H99.4289C99.9955 20.3167 100.458 19.8634 100.458 19.3078V14.1157C100.458 13.5601 99.9955 13.1068 99.4289 13.1068H91.4862Z" fill="white"/>
<path d="M72.9602 23.4908C72.0689 23.4908 71.3442 22.7799 71.3442 21.9058V11.5218C71.3442 10.6474 72.0689 9.93652 72.9602 9.93652H80.9032C83.2562 9.93652 85.1682 11.8118 85.1682 14.1196C85.1682 16.4278 83.2562 18.3028 80.9032 18.3028H74.5806V21.9098C74.5806 22.7839 73.8559 23.4948 72.9646 23.4948L72.9602 23.4908ZM74.5762 15.1245H80.8989C81.4652 15.1245 81.9276 14.6713 81.9276 14.1156C81.9276 13.56 81.4652 13.1067 80.8989 13.1067H74.5762V15.1245Z" fill="white"/>
<path d="M82.8023 23.319L74.2319 18.6597C73.5106 18.2675 73.2746 17.3277 73.7059 16.5644C74.1376 15.8012 75.0749 15.4995 75.7963 15.8916L84.3666 20.551C85.0879 20.9431 85.3239 21.8826 84.8926 22.6462C84.4613 23.4095 83.5236 23.7112 82.8023 23.319Z" fill="white"/>
</g>
<defs>
<clipPath id="clip0_4402_66">
<rect width="133" height="48" fill="white"/>
</clipPath>
</defs>
</svg>
